# xmcd
#
# Track frame offsets:
#	150
#	17640
#	35209
#	55971
#	70366
#	86069
#	102092
#	119591
#	137306
#	158297
#	172674
#	188392
#
# Disc length: 2725 seconds
#
# Revision: 1
# Processed by: cddbd v1.5.2PL0 Copyright (c) Steve Scherf et al.
# Submitted via: audiograbber 1.83.01
#
DISCID=8f0aa30c
DTITLE=Chartbuster - cb20286
DYEAR=2008
DGENRE=Country
TTITLE0=Trick Pony - On A Night Like This (Vocal)
TTITLE1=Elton John - Simple Life (Vocal)
TTITLE2=SheDaisy - Still Holding Out For You (Vocal)
TTITLE3=McGraw, Tim - Unbroken By You (Vocal)
TTITLE4=Garner, Kristin - Let's Burn It Down (Vocal)
TTITLE5=Rose, Clarice - A Mile A Minute (Vocal)
TTITLE6=Trick Pony - On A Night Like This
TTITLE7=Elton John - Simple Life
TTITLE8=SheDaisy - Still Holding Out For You
TTITLE9=McGraw, Tim - Unbroken By You
TTITLE10=Garner, Kristin - Let's Burn It Down
TTITLE11=Rose, Clarice - A Mile A Minute
EXTD=
EXTT0=
EXTT1=
EXTT2=
EXTT3=
EXTT4=
EXTT5=
EXTT6=
EXTT7=
EXTT8=
EXTT9=
EXTT10=
EXTT11=
PLAYORDER=
